<svg width="32" height="50" viewBox="0 0 32 50" fill="none" xmlns="http://www.w3.org/2000/svg">
<path d="M24 2.68008L8.00004 2.66675C6.53337 2.66675 5.33337 3.85341 5.33337 5.33341V26.6667C5.33337 28.1334 6.53337 29.3334 8.00004 29.3334H24C25.4667 29.3334 26.6667 28.1334 26.6667 26.6667V5.33341C26.6667 3.85341 25.4667 2.68008 24 2.68008ZM22.6667 26.6667H9.33337C8.60004 26.6667 8.00004 26.0667 8.00004 25.3334V15.9734C8.00004 15.2401 8.60004 14.6401 9.33337 14.6401H22.6667C23.4 14.6401 24 15.2401 24 15.9734V25.3334C24 26.0667 23.4 26.6667 22.6667 26.6667ZM22.6667 12.0001H9.33337C8.60004 12.0001 8.00004 11.4001 8.00004 10.6667V6.66675C8.00004 5.93341 8.60004 5.33341 9.33337 5.33341H22.6667C23.4 5.33341 24 5.93341 24 6.66675V10.6667C24 11.4001 23.4 12.0001 22.6667 12.0001ZM12 6.66675C12.7334 6.66675 13.3334 7.26675 13.3334 8.00008V9.33341C13.3334 10.0667 12.7334 10.6667 12 10.6667C11.2667 10.6667 10.6667 10.0667 10.6667 9.33341V8.00008C10.6667 7.26675 11.2667 6.66675 12 6.66675ZM12 16.0001C12.7334 16.0001 13.3334 16.6001 13.3334 17.3334V21.3334C13.3334 22.0667 12.7334 22.6667 12 22.6667C11.2667 22.6667 10.6667 22.0667 10.6667 21.3334V17.3334C10.6667 16.6001 11.2667 16.0001 12 16.0001Z" fill="#323232"/>
<path d="M0.921697 47V39.7273H3.37908C3.94963 39.7273 4.41602 39.8303 4.77823 40.0362C5.14282 40.2398 5.4127 40.5156 5.58789 40.8636C5.76308 41.2116 5.85067 41.5999 5.85067 42.0284C5.85067 42.4569 5.76308 42.8464 5.58789 43.1967C5.41507 43.5471 5.14755 43.8265 4.78533 44.0348C4.42312 44.2408 3.9591 44.3438 3.39329 44.3438H1.63192V43.5625H3.36488C3.7555 43.5625 4.06919 43.495 4.30593 43.3601C4.54267 43.2251 4.71431 43.0429 4.82085 42.8132C4.92975 42.5812 4.9842 42.3196 4.9842 42.0284C4.9842 41.7372 4.92975 41.4768 4.82085 41.2472C4.71431 41.0175 4.54149 40.8376 4.30238 40.7074C4.06327 40.5748 3.74603 40.5085 3.35067 40.5085H1.80238V47H0.921697ZM8.76083 47.1278C8.41519 47.1278 8.1015 47.0627 7.81978 46.9325C7.53806 46.8 7.31433 46.6094 7.14862 46.3608C6.9829 46.1098 6.90004 45.8068 6.90004 45.4517C6.90004 45.1392 6.96159 44.8859 7.08469 44.6918C7.2078 44.4953 7.37234 44.3414 7.5783 44.2301C7.78427 44.1188 8.01154 44.036 8.26012 43.9815C8.51107 43.9247 8.7632 43.8797 9.01651 43.8466C9.34795 43.804 9.61665 43.772 9.82262 43.7507C10.031 43.727 10.1825 43.688 10.2772 43.6335C10.3742 43.5791 10.4228 43.4844 10.4228 43.3494V43.321C10.4228 42.9706 10.3269 42.6984 10.1351 42.5043C9.94573 42.3101 9.65808 42.2131 9.27219 42.2131C8.8721 42.2131 8.55842 42.3007 8.33114 42.4759C8.10387 42.651 7.94407 42.8381 7.85174 43.0369L7.05629 42.7528C7.19833 42.4214 7.38772 42.1634 7.62447 41.9787C7.86358 41.7917 8.12399 41.6615 8.40572 41.5881C8.68981 41.5123 8.96916 41.4744 9.24379 41.4744C9.41897 41.4744 9.62021 41.4957 9.84748 41.5384C10.0771 41.5786 10.2985 41.6626 10.5115 41.7905C10.727 41.9183 10.9057 42.1113 11.0478 42.3693C11.1898 42.6274 11.2608 42.973 11.2608 43.4062V47H10.4228V46.2614H10.3801C10.3233 46.3797 10.2286 46.5064 10.0961 46.6413C9.96348 46.7763 9.78711 46.8911 9.56694 46.9858C9.34677 47.0805 9.07807 47.1278 8.76083 47.1278ZM8.88867 46.375C9.22011 46.375 9.49947 46.3099 9.72674 46.1797C9.95638 46.0495 10.1292 45.8814 10.2452 45.6754C10.3636 45.4695 10.4228 45.2528 10.4228 45.0256V44.2585C10.3873 44.3011 10.3091 44.3402 10.1884 44.3757C10.07 44.4089 9.93271 44.4384 9.77646 44.4645C9.62257 44.4882 9.47224 44.5095 9.32546 44.5284C9.18105 44.545 9.06386 44.5592 8.9739 44.571C8.7561 44.5994 8.5525 44.6456 8.3631 44.7095C8.17608 44.7711 8.02456 44.8646 7.90856 44.9901C7.79492 45.1132 7.7381 45.2812 7.7381 45.4943C7.7381 45.7855 7.84582 46.0057 8.06126 46.1548C8.27906 46.3016 8.55487 46.375 8.88867 46.375ZM13.6286 43.7188V47H12.7905V41.5455H13.6001V42.3977H13.6712C13.799 42.1207 13.9931 41.8982 14.2536 41.7301C14.514 41.5597 14.8501 41.4744 15.2621 41.4744C15.6314 41.4744 15.9545 41.5502 16.2315 41.7017C16.5085 41.8509 16.724 42.0781 16.8778 42.3835C17.0317 42.6866 17.1087 43.0701 17.1087 43.5341V47H16.2706V43.5909C16.2706 43.1624 16.1593 42.8286 15.9368 42.5895C15.7143 42.348 15.4089 42.2273 15.0206 42.2273C14.7531 42.2273 14.514 42.2853 14.3033 42.4013C14.0949 42.5173 13.9304 42.6866 13.8097 42.9091C13.6889 43.1316 13.6286 43.4015 13.6286 43.7188ZM21.0123 41.5455V42.2557H18.1855V41.5455H21.0123ZM19.0094 40.2386H19.8475V45.4375C19.8475 45.6742 19.8818 45.8518 19.9505 45.9702C20.0215 46.0862 20.1114 46.1643 20.2203 46.2045C20.3316 46.2424 20.4488 46.2614 20.5719 46.2614C20.6642 46.2614 20.74 46.2566 20.7992 46.2472C20.8584 46.2353 20.9057 46.2259 20.9412 46.2188L21.1117 46.9716C21.0549 46.9929 20.9756 47.0142 20.8738 47.0355C20.772 47.0592 20.6429 47.071 20.4867 47.071C20.2499 47.071 20.0179 47.0201 19.7907 46.9183C19.5658 46.8165 19.3787 46.6615 19.2296 46.4531C19.0828 46.2448 19.0094 45.982 19.0094 45.6648V40.2386ZM22.2729 47V41.5455H23.0826V42.3693H23.1394C23.2388 42.0994 23.4187 41.8804 23.6792 41.7124C23.9396 41.5443 24.2331 41.4602 24.5598 41.4602C24.6214 41.4602 24.6983 41.4614 24.7907 41.4638C24.883 41.4661 24.9528 41.4697 25.0002 41.4744V42.3267C24.9718 42.3196 24.9067 42.3089 24.8049 42.2947C24.7054 42.2782 24.6001 42.2699 24.4888 42.2699C24.2237 42.2699 23.9869 42.3255 23.7786 42.4368C23.5726 42.5457 23.4093 42.6972 23.2885 42.8913C23.1702 43.0831 23.111 43.3021 23.111 43.5483V47H22.2729ZM26.6994 49.0455C26.5574 49.0455 26.4307 49.0336 26.3194 49.0099C26.2082 48.9886 26.1312 48.9673 26.0886 48.946L26.3017 48.2074C26.5053 48.2595 26.6852 48.2784 26.8414 48.2642C26.9977 48.25 27.1362 48.1802 27.2569 48.0547C27.38 47.9316 27.4925 47.7315 27.5943 47.4545L27.7505 47.0284L25.7335 41.5455H26.6426L28.1483 45.892H28.2051L29.7108 41.5455H30.6199L28.3045 47.7955C28.2003 48.0772 28.0713 48.3104 27.9174 48.495C27.7636 48.6821 27.5848 48.8205 27.3812 48.9105C27.18 49.0005 26.9527 49.0455 26.6994 49.0455Z" fill="black"/>
</svg>
