<svg width="40" height="51" viewBox="0 0 40 51" fill="none" xmlns="http://www.w3.org/2000/svg">
<path d="M10.6667 2.66659C10.6667 1.93325 10.0667 1.33325 9.33337 1.33325C8.60004 1.33325 8.00004 1.93325 8.00004 2.66659V7.99992H5.33337V21.3333C5.33337 23.0666 6.45337 24.5333 8.00004 25.0933V30.6666H10.6667V25.0933C12.2134 24.5333 13.3334 23.0666 13.3334 21.3333V7.99992H10.6667V2.66659ZM9.33337 22.6666C8.60004 22.6666 8.00004 22.0666 8.00004 21.3333V18.6666H10.6667V21.3333C10.6667 22.0666 10.0667 22.6666 9.33337 22.6666ZM8.00004 15.9999V10.6666H10.6667V15.9999H8.00004ZM21.3334 2.66659C21.3334 1.93325 20.7334 1.33325 20 1.33325C19.2667 1.33325 18.6667 1.93325 18.6667 2.66659V7.99992H16V21.3333C16 23.0666 17.12 24.5333 18.6667 25.0933V30.6666H21.3334V25.0933C22.88 24.5333 24 23.0666 24 21.3333V7.99992H21.3334V2.66659ZM20 22.6666C19.2667 22.6666 18.6667 22.0666 18.6667 21.3333V18.6666H21.3334V21.3333C21.3334 22.0666 20.7334 22.6666 20 22.6666ZM18.6667 15.9999V10.6666H21.3334V15.9999H18.6667ZM32 7.99992V2.66659C32 1.93325 31.4 1.33325 30.6667 1.33325C29.9334 1.33325 29.3334 1.93325 29.3334 2.66659V7.99992H26.6667V21.3333C26.6667 23.0666 27.7867 24.5333 29.3334 25.0933V30.6666H32V25.0933C33.5467 24.5333 34.6667 23.0666 34.6667 21.3333V7.99992H32ZM30.6667 22.6666C29.9334 22.6666 29.3334 22.0666 29.3334 21.3333V18.6666H32V21.3333C32 22.0666 31.4 22.6666 30.6667 22.6666ZM29.3334 15.9999V10.6666H32V15.9999H29.3334Z" fill="#323232"/>
<path d="M5.356 42.5455C5.31339 42.1856 5.14057 41.9062 4.83754 41.7074C4.53451 41.5085 4.16282 41.4091 3.72248 41.4091C3.40051 41.4091 3.11879 41.4612 2.87731 41.5653C2.6382 41.6695 2.45117 41.8127 2.31623 41.995C2.18365 42.1773 2.11737 42.3845 2.11737 42.6165C2.11737 42.8106 2.16353 42.9775 2.25586 43.1172C2.35056 43.2545 2.47129 43.3693 2.61808 43.4616C2.76486 43.5516 2.91874 43.6262 3.07972 43.6854C3.24071 43.7422 3.38867 43.7884 3.52362 43.8239L4.26225 44.0227C4.45165 44.0724 4.66235 44.1411 4.89435 44.2287C5.12873 44.3163 5.35245 44.4358 5.56552 44.5874C5.78095 44.7365 5.95851 44.9283 6.09819 45.1626C6.23787 45.397 6.30771 45.6847 6.30771 46.0256C6.30771 46.4186 6.20472 46.7737 5.99876 47.0909C5.79516 47.4081 5.49686 47.6603 5.10387 47.8473C4.71325 48.0343 4.23858 48.1278 3.67987 48.1278C3.15903 48.1278 2.70804 48.0438 2.32688 47.8757C1.94809 47.7076 1.6498 47.4732 1.432 47.1726C1.21656 46.8719 1.09464 46.5227 1.06623 46.125H1.97532C1.99899 46.3996 2.09132 46.6269 2.25231 46.8068C2.41566 46.9844 2.62163 47.117 2.87021 47.2045C3.12115 47.2898 3.39104 47.3324 3.67987 47.3324C4.01604 47.3324 4.31789 47.2779 4.5854 47.169C4.85292 47.0578 5.06481 46.9039 5.22106 46.7074C5.37731 46.5085 5.45543 46.2765 5.45543 46.0114C5.45543 45.7699 5.38796 45.5734 5.25302 45.4219C5.11808 45.2704 4.94052 45.1473 4.72035 45.0526C4.50018 44.9579 4.26225 44.875 4.00657 44.804L3.11168 44.5483C2.5435 44.3849 2.09369 44.1518 1.76225 43.8487C1.43081 43.5457 1.26509 43.1491 1.26509 42.6591C1.26509 42.2519 1.37518 41.8968 1.59535 41.5938C1.81789 41.2884 2.11618 41.0516 2.49023 40.8835C2.86665 40.7131 3.28687 40.6278 3.75089 40.6278C4.21964 40.6278 4.6363 40.7119 5.00089 40.88C5.36547 41.0457 5.6543 41.273 5.86737 41.5618C6.0828 41.8506 6.19644 42.1785 6.20827 42.5455H5.356ZM9.92898 48.1136C9.40341 48.1136 8.95005 47.9976 8.56889 47.7656C8.1901 47.5312 7.89773 47.2045 7.69176 46.7855C7.48816 46.3641 7.38636 45.8741 7.38636 45.3153C7.38636 44.7566 7.48816 44.2642 7.69176 43.8381C7.89773 43.4096 8.18419 43.0758 8.55114 42.8366C8.92045 42.5952 9.35133 42.4744 9.84375 42.4744C10.1278 42.4744 10.4084 42.5218 10.6854 42.6165C10.9624 42.7112 11.2145 42.8651 11.4418 43.0781C11.669 43.2888 11.8501 43.5682 11.9851 43.9162C12.12 44.2642 12.1875 44.6927 12.1875 45.2017V45.5568H7.98295V44.8324H11.3352C11.3352 44.5246 11.2737 44.25 11.1506 44.0085C11.0298 43.767 10.857 43.5765 10.6321 43.4368C10.4096 43.2971 10.1468 43.2273 9.84375 43.2273C9.50994 43.2273 9.22112 43.3101 8.97727 43.4759C8.7358 43.6392 8.54995 43.8523 8.41974 44.1151C8.28954 44.3778 8.22443 44.6596 8.22443 44.9602V45.4432C8.22443 45.8551 8.29545 46.2043 8.4375 46.4908C8.58191 46.7749 8.78196 46.9915 9.03764 47.1406C9.29332 47.2874 9.59044 47.3608 9.92898 47.3608C10.1491 47.3608 10.348 47.33 10.5256 47.2685C10.7055 47.2045 10.8606 47.1098 10.9908 46.9844C11.121 46.8565 11.2216 46.6979 11.2926 46.5085L12.1023 46.7358C12.017 47.0104 11.8738 47.2519 11.6726 47.4602C11.4714 47.6662 11.2228 47.8272 10.9268 47.9432C10.6309 48.0568 10.2983 48.1136 9.92898 48.1136ZM15.8345 42.5455V43.2557H13.0078V42.5455H15.8345ZM13.8317 41.2386H14.6697V46.4375C14.6697 46.6742 14.7041 46.8518 14.7727 46.9702C14.8438 47.0862 14.9337 47.1643 15.0426 47.2045C15.1539 47.2424 15.2711 47.2614 15.3942 47.2614C15.4865 47.2614 15.5623 47.2566 15.6214 47.2472C15.6806 47.2353 15.728 47.2259 15.7635 47.2188L15.9339 47.9716C15.8771 47.9929 15.7978 48.0142 15.696 48.0355C15.5942 48.0592 15.4652 48.071 15.3089 48.071C15.0722 48.071 14.8402 48.0201 14.6129 47.9183C14.388 47.8165 14.201 47.6615 14.0518 47.4531C13.9051 47.2448 13.8317 46.982 13.8317 46.6648V41.2386ZM19.4673 42.5455V43.2557H16.6406V42.5455H19.4673ZM17.4645 41.2386H18.3026V46.4375C18.3026 46.6742 18.3369 46.8518 18.4055 46.9702C18.4766 47.0862 18.5665 47.1643 18.6754 47.2045C18.7867 47.2424 18.9039 47.2614 19.027 47.2614C19.1193 47.2614 19.1951 47.2566 19.2543 47.2472C19.3134 47.2353 19.3608 47.2259 19.3963 47.2188L19.5668 47.9716C19.5099 47.9929 19.4306 48.0142 19.3288 48.0355C19.227 48.0592 19.098 48.071 18.9418 48.071C18.705 48.071 18.473 48.0201 18.2457 47.9183C18.0208 47.8165 17.8338 47.6615 17.6847 47.4531C17.5379 47.2448 17.4645 46.982 17.4645 46.6648V41.2386ZM20.728 48V42.5455H21.5661V48H20.728ZM21.1541 41.6364C20.9908 41.6364 20.8499 41.5807 20.7315 41.4695C20.6155 41.3582 20.5575 41.2244 20.5575 41.0682C20.5575 40.9119 20.6155 40.7782 20.7315 40.6669C20.8499 40.5556 20.9908 40.5 21.1541 40.5C21.3175 40.5 21.4571 40.5556 21.5732 40.6669C21.6915 40.7782 21.7507 40.9119 21.7507 41.0682C21.7507 41.2244 21.6915 41.3582 21.5732 41.4695C21.4571 41.5807 21.3175 41.6364 21.1541 41.6364ZM23.9391 44.7188V48H23.101V42.5455H23.9107V43.3977H23.9817C24.1096 43.1207 24.3037 42.8982 24.5641 42.7301C24.8245 42.5597 25.1607 42.4744 25.5726 42.4744C25.9419 42.4744 26.2651 42.5502 26.5421 42.7017C26.8191 42.8509 27.0345 43.0781 27.1884 43.3835C27.3423 43.6866 27.4192 44.0701 27.4192 44.5341V48H26.5811V44.5909C26.5811 44.1624 26.4699 43.8286 26.2473 43.5895C26.0248 43.348 25.7194 43.2273 25.3311 43.2273C25.0636 43.2273 24.8245 43.2853 24.6138 43.4013C24.4055 43.5173 24.2409 43.6866 24.1202 43.9091C23.9995 44.1316 23.9391 44.4015 23.9391 44.7188ZM31.1523 50.1591C30.7475 50.1591 30.3995 50.107 30.1083 50.0028C29.8171 49.901 29.5745 49.7661 29.3803 49.598C29.1886 49.4323 29.0359 49.2547 28.9222 49.0653L29.5898 48.5966C29.6656 48.696 29.7615 48.8097 29.8775 48.9375C29.9935 49.0677 30.1521 49.1802 30.3533 49.2749C30.5569 49.3719 30.8233 49.4205 31.1523 49.4205C31.5927 49.4205 31.9561 49.3139 32.2425 49.1009C32.529 48.8878 32.6722 48.554 32.6722 48.0994V46.9915H32.6012C32.5397 47.0909 32.4521 47.214 32.3384 47.3608C32.2272 47.5052 32.0662 47.6342 31.8555 47.7479C31.6471 47.8591 31.3654 47.9148 31.0103 47.9148C30.57 47.9148 30.1746 47.8106 29.8242 47.6023C29.4762 47.3939 29.2004 47.0909 28.9968 46.6932C28.7956 46.2955 28.695 45.8125 28.695 45.2443C28.695 44.6856 28.7932 44.1991 28.9897 43.7848C29.1862 43.3681 29.4596 43.0462 29.81 42.8189C30.1604 42.5893 30.5652 42.4744 31.0245 42.4744C31.3796 42.4744 31.6613 42.5336 31.8697 42.652C32.0804 42.768 32.2414 42.9006 32.3526 43.0497C32.4663 43.1965 32.5539 43.3172 32.6154 43.4119H32.7006V42.5455H33.5103V48.1562C33.5103 48.625 33.4038 49.0062 33.1907 49.2997C32.98 49.5956 32.6959 49.8123 32.3384 49.9496C31.9833 50.0893 31.5879 50.1591 31.1523 50.1591ZM31.1239 47.1619C31.4601 47.1619 31.7442 47.085 31.9762 46.9311C32.2082 46.7772 32.3846 46.5559 32.5053 46.267C32.6261 45.9782 32.6864 45.6326 32.6864 45.2301C32.6864 44.8371 32.6272 44.4903 32.5089 44.1896C32.3905 43.889 32.2153 43.6534 31.9833 43.483C31.7513 43.3125 31.4648 43.2273 31.1239 43.2273C30.7688 43.2273 30.4729 43.3172 30.2362 43.4972C30.0018 43.6771 29.8254 43.9186 29.707 44.2216C29.591 44.5246 29.533 44.8608 29.533 45.2301C29.533 45.6089 29.5922 45.9439 29.7106 46.2351C29.8313 46.5239 30.0089 46.7512 30.2433 46.9169C30.48 47.0803 30.7736 47.1619 31.1239 47.1619ZM38.908 43.767L38.1552 43.9801C38.1078 43.8546 38.038 43.7327 37.9457 43.6143C37.8557 43.4936 37.7326 43.3942 37.5763 43.3161C37.4201 43.2379 37.2201 43.1989 36.9762 43.1989C36.6424 43.1989 36.3642 43.2758 36.1417 43.4297C35.9215 43.5812 35.8114 43.7741 35.8114 44.0085C35.8114 44.2169 35.8872 44.3814 36.0387 44.5021C36.1902 44.6229 36.427 44.7235 36.7489 44.804L37.5586 45.0028C38.0463 45.1212 38.4097 45.3023 38.6488 45.5462C38.8879 45.7876 39.0075 46.099 39.0075 46.4801C39.0075 46.7926 38.9175 47.072 38.7376 47.3182C38.56 47.5644 38.3114 47.7585 37.9918 47.9006C37.6722 48.0426 37.3005 48.1136 36.8768 48.1136C36.3204 48.1136 35.86 47.9929 35.4954 47.7514C35.1308 47.5099 34.9 47.1572 34.8029 46.6932L35.5984 46.4943C35.6741 46.7879 35.8174 47.008 36.0281 47.1548C36.2411 47.3016 36.5193 47.375 36.8626 47.375C37.2532 47.375 37.5633 47.2921 37.793 47.1264C38.025 46.9583 38.141 46.7571 38.141 46.5227C38.141 46.3333 38.0747 46.1747 37.9421 46.0469C37.8095 45.9167 37.6059 45.8196 37.3313 45.7557L36.4222 45.5426C35.9227 45.4242 35.5558 45.2408 35.3214 44.9922C35.0894 44.7412 34.9734 44.4276 34.9734 44.0511C34.9734 43.7434 35.0598 43.4711 35.2326 43.2344C35.4078 42.9976 35.6457 42.8118 35.9464 42.6768C36.2494 42.5419 36.5927 42.4744 36.9762 42.4744C37.516 42.4744 37.9397 42.5928 38.2475 42.8295C38.5576 43.0663 38.7778 43.3788 38.908 43.767Z" fill="black"/>
</svg>
