<svg width="32" height="48" viewBox="0 0 32 48" fill="none" xmlns="http://www.w3.org/2000/svg">
<path d="M1.94025 47V39.7273H2.82093V42.9659H6.69878V39.7273H7.57946V47H6.69878V43.7472H2.82093V47H1.94025ZM11.4449 47.1136C10.9524 47.1136 10.5204 46.9964 10.1487 46.7621C9.77939 46.5277 9.49056 46.1998 9.28223 45.7784C9.07626 45.357 8.97328 44.8646 8.97328 44.3011C8.97328 43.733 9.07626 43.237 9.28223 42.8132C9.49056 42.3894 9.77939 42.0604 10.1487 41.826C10.5204 41.5916 10.9524 41.4744 11.4449 41.4744C11.9373 41.4744 12.3682 41.5916 12.7375 41.826C13.1092 42.0604 13.398 42.3894 13.604 42.8132C13.8123 43.237 13.9165 43.733 13.9165 44.3011C13.9165 44.8646 13.8123 45.357 13.604 45.7784C13.398 46.1998 13.1092 46.5277 12.7375 46.7621C12.3682 46.9964 11.9373 47.1136 11.4449 47.1136ZM11.4449 46.3608C11.8189 46.3608 12.1267 46.2649 12.3682 46.0732C12.6096 45.8814 12.7884 45.6293 12.9044 45.3168C13.0204 45.0043 13.0784 44.6657 13.0784 44.3011C13.0784 43.9366 13.0204 43.5968 12.9044 43.282C12.7884 42.9671 12.6096 42.7126 12.3682 42.5185C12.1267 42.3243 11.8189 42.2273 11.4449 42.2273C11.0708 42.2273 10.7631 42.3243 10.5216 42.5185C10.2801 42.7126 10.1014 42.9671 9.98535 43.282C9.86935 43.5968 9.81135 43.9366 9.81135 44.3011C9.81135 44.6657 9.86935 45.0043 9.98535 45.3168C10.1014 45.6293 10.2801 45.8814 10.5216 46.0732C10.7631 46.2649 11.0708 46.3608 11.4449 46.3608ZM15.1958 47V41.5455H16.0054V42.3977H16.0764C16.1901 42.1065 16.3735 41.8804 16.6269 41.7195C16.8802 41.5561 17.1844 41.4744 17.5395 41.4744C17.8994 41.4744 18.1988 41.5561 18.4379 41.7195C18.6794 41.8804 18.8676 42.1065 19.0026 42.3977H19.0594C19.1991 42.116 19.4086 41.8923 19.6879 41.7266C19.9673 41.5585 20.3023 41.4744 20.6929 41.4744C21.1806 41.4744 21.5795 41.6271 21.8896 41.9325C22.1998 42.2356 22.3548 42.7079 22.3548 43.3494V47H21.5168V43.3494C21.5168 42.947 21.4067 42.6593 21.1865 42.4865C20.9664 42.3137 20.7071 42.2273 20.4088 42.2273C20.0253 42.2273 19.7282 42.3433 19.5175 42.5753C19.3068 42.8049 19.2014 43.0961 19.2014 43.4489V47H18.3492V43.2642C18.3492 42.9541 18.2486 42.7043 18.0473 42.5149C17.8461 42.3232 17.5869 42.2273 17.2696 42.2273C17.0518 42.2273 16.8482 42.2853 16.6588 42.4013C16.4718 42.5173 16.3203 42.6783 16.2043 42.8842C16.0906 43.0878 16.0338 43.3234 16.0338 43.5909V47H15.1958ZM26.1741 47.1136C25.6485 47.1136 25.1952 46.9976 24.814 46.7656C24.4352 46.5312 24.1428 46.2045 23.9369 45.7855C23.7333 45.3641 23.6315 44.8741 23.6315 44.3153C23.6315 43.7566 23.7333 43.2642 23.9369 42.8381C24.1428 42.4096 24.4293 42.0758 24.7963 41.8366C25.1656 41.5952 25.5964 41.4744 26.0889 41.4744C26.373 41.4744 26.6535 41.5218 26.9305 41.6165C27.2075 41.7112 27.4596 41.8651 27.6869 42.0781C27.9142 42.2888 28.0953 42.5682 28.2302 42.9162C28.3651 43.2642 28.4326 43.6927 28.4326 44.2017V44.5568H24.2281V43.8324H27.5803C27.5803 43.5246 27.5188 43.25 27.3957 43.0085C27.2749 42.767 27.1021 42.5765 26.8772 42.4368C26.6547 42.2971 26.3919 42.2273 26.0889 42.2273C25.7551 42.2273 25.4662 42.3101 25.2224 42.4759C24.9809 42.6392 24.7951 42.8523 24.6649 43.1151C24.5347 43.3778 24.4695 43.6596 24.4695 43.9602V44.4432C24.4695 44.8551 24.5406 45.2043 24.6826 45.4908C24.827 45.7749 25.0271 45.9915 25.2828 46.1406C25.5384 46.2874 25.8356 46.3608 26.1741 46.3608C26.3943 46.3608 26.5931 46.33 26.7707 46.2685C26.9506 46.2045 27.1057 46.1098 27.2359 45.9844C27.3661 45.8565 27.4667 45.6979 27.5377 45.5085L28.3474 45.7358C28.2622 46.0104 28.1189 46.2519 27.9177 46.4602C27.7165 46.6662 27.4679 46.8272 27.172 46.9432C26.876 47.0568 26.5434 47.1136 26.1741 47.1136Z" fill="black"/>
<path d="M16 7.58667L22.6666 13.5867V24H20V16H12V24H9.33329V13.5867L16 7.58667ZM16 4L2.66663 16H6.66663V26.6667H14.6666V18.6667H17.3333V26.6667H25.3333V16H29.3333L16 4Z" fill="#323232"/>
</svg>
