<svg width="32" height="50" viewBox="0 0 32 50" fill="none" xmlns="http://www.w3.org/2000/svg">
<path d="M6.92924 40.5085V39.7273H12.3838V40.5085H10.0969V47H9.21618V40.5085H6.92924ZM13.6294 47V41.5455H14.4674V47H13.6294ZM14.0555 40.6364C13.8921 40.6364 13.7513 40.5807 13.6329 40.4695C13.5169 40.3582 13.4589 40.2244 13.4589 40.0682C13.4589 39.9119 13.5169 39.7782 13.6329 39.6669C13.7513 39.5556 13.8921 39.5 14.0555 39.5C14.2188 39.5 14.3585 39.5556 14.4745 39.6669C14.5929 39.7782 14.6521 39.9119 14.6521 40.0682C14.6521 40.2244 14.5929 40.3582 14.4745 40.4695C14.3585 40.5807 14.2188 40.6364 14.0555 40.6364ZM16.0024 49.0455V41.5455H16.8121V42.4119H16.9115C16.973 42.3172 17.0583 42.1965 17.1672 42.0497C17.2784 41.9006 17.4371 41.768 17.643 41.652C17.8514 41.5336 18.1331 41.4744 18.4882 41.4744C18.9475 41.4744 19.3523 41.5893 19.7027 41.8189C20.0531 42.0485 20.3265 42.3741 20.523 42.7955C20.7195 43.2169 20.8177 43.714 20.8177 44.2869C20.8177 44.8646 20.7195 45.3653 20.523 45.7891C20.3265 46.2105 20.0542 46.5372 19.7062 46.7692C19.3582 46.9988 18.9569 47.1136 18.5024 47.1136C18.152 47.1136 17.8715 47.0556 17.6608 46.9396C17.4501 46.8213 17.2879 46.6875 17.1743 46.5384C17.0606 46.3868 16.973 46.2614 16.9115 46.1619H16.8405V49.0455H16.0024ZM16.8263 44.2727C16.8263 44.6847 16.8866 45.0481 17.0074 45.3629C17.1281 45.6754 17.3045 45.9205 17.5365 46.098C17.7685 46.2732 18.0526 46.3608 18.3888 46.3608C18.7391 46.3608 19.0315 46.2685 19.2659 46.0838C19.5026 45.8968 19.6802 45.6458 19.7986 45.331C19.9193 45.0137 19.9797 44.661 19.9797 44.2727C19.9797 43.8892 19.9205 43.5436 19.8021 43.2358C19.6861 42.9257 19.5097 42.6806 19.273 42.5007C19.0386 42.3184 18.7439 42.2273 18.3888 42.2273C18.0479 42.2273 17.7614 42.3137 17.5294 42.4865C17.2974 42.657 17.1222 42.8961 17.0038 43.2038C16.8854 43.5092 16.8263 43.8655 16.8263 44.2727ZM25.9598 42.767L25.2069 42.9801C25.1596 42.8546 25.0898 42.7327 24.9974 42.6143C24.9075 42.4936 24.7844 42.3942 24.6281 42.3161C24.4719 42.2379 24.2718 42.1989 24.028 42.1989C23.6942 42.1989 23.416 42.2758 23.1934 42.4297C22.9733 42.5812 22.8632 42.7741 22.8632 43.0085C22.8632 43.2169 22.939 43.3814 23.0905 43.5021C23.242 43.6229 23.4787 43.7235 23.8007 43.804L24.6104 44.0028C25.098 44.1212 25.4614 44.3023 25.7006 44.5462C25.9397 44.7876 26.0592 45.099 26.0592 45.4801C26.0592 45.7926 25.9693 46.072 25.7893 46.3182C25.6118 46.5644 25.3632 46.7585 25.0436 46.9006C24.724 47.0426 24.3523 47.1136 23.9285 47.1136C23.3722 47.1136 22.9117 46.9929 22.5471 46.7514C22.1826 46.5099 21.9517 46.1572 21.8547 45.6932L22.6501 45.4943C22.7259 45.7879 22.8691 46.008 23.0798 46.1548C23.2929 46.3016 23.5711 46.375 23.9143 46.375C24.305 46.375 24.6151 46.2921 24.8447 46.1264C25.0767 45.9583 25.1927 45.7571 25.1927 45.5227C25.1927 45.3333 25.1265 45.1747 24.9939 45.0469C24.8613 44.9167 24.6577 44.8196 24.3831 44.7557L23.474 44.5426C22.9745 44.4242 22.6075 44.2408 22.3731 43.9922C22.1411 43.7412 22.0251 43.4276 22.0251 43.0511C22.0251 42.7434 22.1115 42.4711 22.2844 42.2344C22.4595 41.9976 22.6975 41.8118 22.9981 41.6768C23.3012 41.5419 23.6444 41.4744 24.028 41.4744C24.5677 41.4744 24.9915 41.5928 25.2993 41.8295C25.6094 42.0663 25.8296 42.3788 25.9598 42.767Z" fill="black"/>
<path d="M12 28.0001C12 28.7334 12.6 29.3334 13.3333 29.3334H18.6666C19.4 29.3334 20 28.7334 20 28.0001V26.6667H12V28.0001ZM16 2.66675C10.8533 2.66675 6.66663 6.85341 6.66663 12.0001C6.66663 15.1734 8.25329 17.9601 10.6666 19.6534V22.6667C10.6666 23.4001 11.2666 24.0001 12 24.0001H20C20.7333 24.0001 21.3333 23.4001 21.3333 22.6667V19.6534C23.7466 17.9601 25.3333 15.1734 25.3333 12.0001C25.3333 6.85341 21.1466 2.66675 16 2.66675ZM19.8 17.4667L18.6666 18.2667V21.3334H13.3333V18.2667L12.2 17.4667C10.4 16.2134 9.33329 14.1734 9.33329 12.0001C9.33329 8.32008 12.32 5.33341 16 5.33341C19.68 5.33341 22.6666 8.32008 22.6666 12.0001C22.6666 14.1734 21.6 16.2134 19.8 17.4667Z" fill="#323232"/>
</svg>
